<mxfile host="app.diagrams.net" modified="2020-12-14T00:22:27.668Z" agent="5.0 (X11)" etag="CMuTWgPStb23H-fza_ya" version="14.0.1" type="github">
  <diagram id="WG4QoraHiiLLyt8BlyPx" name="Page-1">
    <mxGraphModel dx="824" dy="453" grid="1" gridSize="10" guides="1" tooltips="1" connect="1" arrows="1" fold="1" page="1" pageScale="1" pageWidth="827" pageHeight="1169" math="0" shadow="0">
      <root>
        <mxCell id="0" />
        <mxCell id="1" parent="0" />
        <mxCell id="RaWM7hHFEuQszaUXWWl6-1" value="" style="rounded=0;whiteSpace=wrap;html=1;" vertex="1" parent="1">
          <mxGeometry x="210" y="460" width="60" height="60" as="geometry" />
        </mxCell>
        <mxCell id="RaWM7hHFEuQszaUXWWl6-2" value="64" style="rounded=0;whiteSpace=wrap;html=1;fillColor=#d5e8d4;strokeColor=#82b366;" vertex="1" parent="1">
          <mxGeometry x="210" y="520" width="60" height="60" as="geometry" />
        </mxCell>
        <mxCell id="RaWM7hHFEuQszaUXWWl6-3" value="A" style="rounded=0;whiteSpace=wrap;html=1;fillColor=#fff2cc;strokeColor=#d6b656;" vertex="1" parent="1">
          <mxGeometry x="210" y="580" width="60" height="60" as="geometry" />
        </mxCell>
        <mxCell id="RaWM7hHFEuQszaUXWWl6-4" value="78" style="rounded=0;whiteSpace=wrap;html=1;fillColor=#d5e8d4;strokeColor=#82b366;" vertex="1" parent="1">
          <mxGeometry x="270" y="460" width="60" height="60" as="geometry" />
        </mxCell>
        <mxCell id="RaWM7hHFEuQszaUXWWl6-5" value="58" style="rounded=0;whiteSpace=wrap;html=1;fillColor=#f8cecc;strokeColor=#b85450;" vertex="1" parent="1">
          <mxGeometry x="270" y="520" width="60" height="60" as="geometry" />
        </mxCell>
        <mxCell id="RaWM7hHFEuQszaUXWWl6-6" value="58" style="rounded=0;whiteSpace=wrap;html=1;fillColor=#dae8fc;strokeColor=#6c8ebf;" vertex="1" parent="1">
          <mxGeometry x="270" y="580" width="60" height="60" as="geometry" />
        </mxCell>
        <mxCell id="RaWM7hHFEuQszaUXWWl6-7" value="" style="rounded=0;whiteSpace=wrap;html=1;" vertex="1" parent="1">
          <mxGeometry x="390" y="460" width="60" height="60" as="geometry" />
        </mxCell>
        <mxCell id="RaWM7hHFEuQszaUXWWl6-8" value="" style="rounded=0;whiteSpace=wrap;html=1;fillColor=#000000;" vertex="1" parent="1">
          <mxGeometry x="390" y="580" width="60" height="60" as="geometry" />
        </mxCell>
        <mxCell id="RaWM7hHFEuQszaUXWWl6-9" value="58" style="rounded=0;whiteSpace=wrap;html=1;fillColor=#dae8fc;strokeColor=#6c8ebf;" vertex="1" parent="1">
          <mxGeometry x="390" y="520" width="60" height="60" as="geometry" />
        </mxCell>
        <mxCell id="RaWM7hHFEuQszaUXWWl6-10" value="64" style="rounded=0;whiteSpace=wrap;html=1;fillColor=#d5e8d4;strokeColor=#82b366;" vertex="1" parent="1">
          <mxGeometry x="330" y="460" width="60" height="60" as="geometry" />
        </mxCell>
        <mxCell id="RaWM7hHFEuQszaUXWWl6-11" value="58" style="rounded=0;whiteSpace=wrap;html=1;fillColor=#f8cecc;strokeColor=#b85450;" vertex="1" parent="1">
          <mxGeometry x="330" y="520" width="60" height="60" as="geometry" />
        </mxCell>
        <mxCell id="RaWM7hHFEuQszaUXWWl6-12" value="58" style="rounded=0;whiteSpace=wrap;html=1;fillColor=#dae8fc;strokeColor=#6c8ebf;" vertex="1" parent="1">
          <mxGeometry x="330" y="580" width="60" height="60" as="geometry" />
        </mxCell>
        <mxCell id="RaWM7hHFEuQszaUXWWl6-13" value="B" style="rounded=0;whiteSpace=wrap;html=1;fillColor=#fff2cc;strokeColor=#d6b656;" vertex="1" parent="1">
          <mxGeometry x="510" y="460" width="60" height="60" as="geometry" />
        </mxCell>
        <mxCell id="RaWM7hHFEuQszaUXWWl6-14" value="64" style="rounded=0;whiteSpace=wrap;html=1;fillColor=#d5e8d4;strokeColor=#82b366;" vertex="1" parent="1">
          <mxGeometry x="510" y="520" width="60" height="60" as="geometry" />
        </mxCell>
        <mxCell id="RaWM7hHFEuQszaUXWWl6-15" value="78" style="rounded=0;whiteSpace=wrap;html=1;fillColor=#d5e8d4;strokeColor=#82b366;" vertex="1" parent="1">
          <mxGeometry x="510" y="580" width="60" height="60" as="geometry" />
        </mxCell>
        <mxCell id="RaWM7hHFEuQszaUXWWl6-16" value="64" style="rounded=0;whiteSpace=wrap;html=1;fillColor=#d5e8d4;strokeColor=#82b366;" vertex="1" parent="1">
          <mxGeometry x="450" y="460" width="60" height="60" as="geometry" />
        </mxCell>
        <mxCell id="RaWM7hHFEuQszaUXWWl6-17" value="58" style="rounded=0;whiteSpace=wrap;html=1;fillColor=#dae8fc;strokeColor=#6c8ebf;" vertex="1" parent="1">
          <mxGeometry x="450" y="520" width="60" height="60" as="geometry" />
        </mxCell>
        <mxCell id="RaWM7hHFEuQszaUXWWl6-18" value="64" style="rounded=0;whiteSpace=wrap;html=1;fillColor=#d5e8d4;strokeColor=#82b366;" vertex="1" parent="1">
          <mxGeometry x="450" y="580" width="60" height="60" as="geometry" />
        </mxCell>
        <mxCell id="RaWM7hHFEuQszaUXWWl6-19" value="" style="rounded=0;whiteSpace=wrap;html=1;fillColor=#000000;" vertex="1" parent="1">
          <mxGeometry x="390" y="460" width="60" height="60" as="geometry" />
        </mxCell>
      </root>
    </mxGraphModel>
  </diagram>
</mxfile>
